<svg width="23" height="23" viewBox="0 0 23 23" fill="none" xmlns="http://www.w3.org/2000/svg">
<path d="M10.8313 22.0896L0.985437 12.2437C0.867381 12.1257 0.784743 12.0076 0.73752 11.8896C0.690298 11.7715 0.666687 11.6417 0.666687 11.5C0.666687 11.3583 0.690298 11.2285 0.73752 11.1104C0.784743 10.9924 0.867381 10.8743 0.985437 10.7562L10.8667 0.874993C11.0556 0.686104 11.2917 0.59166 11.575 0.59166C11.8583 0.59166 12.1063 0.69791 12.3188 0.91041C12.5313 1.12291 12.6375 1.37083 12.6375 1.65416C12.6375 1.93749 12.5313 2.18541 12.3188 2.39791L4.27919 10.4375H21.8458C22.1528 10.4375 22.4066 10.5378 22.6073 10.7385C22.808 10.9392 22.9083 11.1931 22.9083 11.5C22.9083 11.8069 22.808 12.0608 22.6073 12.2615C22.4066 12.4621 22.1528 12.5625 21.8458 12.5625H4.27919L12.3542 20.6375C12.5431 20.8264 12.6375 21.0625 12.6375 21.3458C12.6375 21.6292 12.5313 21.8771 12.3188 22.0896C12.1063 22.3021 11.8583 22.4083 11.575 22.4083C11.2917 22.4083 11.0438 22.3021 10.8313 22.0896Z" fill="white"/>
</svg>
