<svg width="32" height="32" viewBox="0 0 32 32" fill="none" xmlns="http://www.w3.org/2000/svg">
<path d="M16.0027 31.0416C13.8898 31.0416 11.9181 30.6575 10.0875 29.8893C8.25697 29.121 6.66211 28.0576 5.30292 26.6991C3.94374 25.3405 2.87985 23.7463 2.11128 21.9166C1.34268 20.0868 0.958374 18.1155 0.958374 16.0027C0.958374 13.906 1.34257 11.9424 2.11096 10.1119C2.87933 8.28132 3.94292 6.68645 5.30173 5.32727C6.66055 3.96808 8.25499 2.90013 10.0851 2.12343C11.9151 1.34673 13.8868 0.958374 16 0.958374C17.8607 0.958374 19.6022 1.25728 21.2244 1.85509C22.8467 2.45291 24.3084 3.27553 25.6096 4.32296L24.3338 5.62917C23.193 4.70556 21.9214 3.9956 20.519 3.49931C19.1165 3.00298 17.6102 2.75482 16 2.75482C12.265 2.75482 9.12368 4.02859 6.57612 6.57612C4.02859 9.12368 2.75482 12.265 2.75482 16C2.75482 19.735 4.02859 22.8763 6.57612 25.4239C9.12368 27.9714 12.265 29.2452 16 29.2452C19.735 29.2452 22.8763 27.9714 25.4239 25.4239C27.9714 22.8763 29.2452 19.735 29.2452 16C29.2452 15.2083 29.1833 14.44 29.0595 13.6951C28.9356 12.9502 28.7549 12.2245 28.5174 11.5179L29.8815 10.1387C30.2631 11.044 30.5519 11.9859 30.7478 12.9644C30.9437 13.9428 31.0416 14.9547 31.0416 16C31.0416 18.1132 30.6534 20.0849 29.8771 21.9149C29.1007 23.745 28.0333 25.3395 26.6747 26.6983C25.3161 28.0571 23.7219 29.1207 21.8922 29.889C20.0625 30.6574 18.0993 31.0416 16.0027 31.0416ZM13.6646 22.6713L7.63577 16.6181L8.9755 15.2632L13.6646 19.9523L29.6867 3.93017L31.066 5.26991L13.6646 22.6713Z" fill="#413CB9"/>
</svg>
