<svg width="38" height="38" viewBox="0 0 38 38" fill="none" xmlns="http://www.w3.org/2000/svg">
<path d="M19 35.29L14.585 30.875H7.82538C7.20448 30.875 6.66864 30.6461 6.21786 30.1883C5.76709 29.7306 5.5417 29.1982 5.5417 28.5913V6.24205C5.5417 5.62115 5.76709 5.08531 6.21786 4.63454C6.66864 4.18376 7.20448 3.95837 7.82538 3.95837H30.1746C30.7816 3.95837 31.3139 4.18376 31.7716 4.63454C32.2294 5.08531 32.4583 5.62115 32.4583 6.24205V28.5913C32.4583 29.1982 32.2294 29.7306 31.7716 30.1883C31.3139 30.6461 30.7816 30.875 30.1746 30.875H23.415L19 35.29ZM7.82538 29.0785H15.3218L19 32.7567L22.6782 29.0785H30.1746C30.3167 29.0785 30.4334 29.0328 30.5248 28.9415C30.6162 28.8501 30.6618 28.7334 30.6618 28.5913V6.24205C30.6618 6.09995 30.6162 5.98322 30.5248 5.89186C30.4334 5.8005 30.3167 5.75482 30.1746 5.75482H7.82538C7.68328 5.75482 7.56655 5.8005 7.47519 5.89186C7.38383 5.98322 7.33815 6.09995 7.33815 6.24205V28.5913C7.33815 28.7334 7.38383 28.8501 7.47519 28.9415C7.56655 29.0328 7.68328 29.0785 7.82538 29.0785ZM21.0279 19.4932L25.516 17.505L21.0279 15.5167L19.0243 11.0286L17.0117 15.5167L12.548 17.505L17.0117 19.4932L19.0243 23.9814L21.0279 19.4932Z" fill="#413CB9"/>
</svg>
