<svg width="39" height="38" viewBox="0 0 39 38" fill="none" xmlns="http://www.w3.org/2000/svg">
<path d="M18.3521 33.25V29.925C16.8479 29.6611 15.6142 29.0872 14.651 28.2031C13.6878 27.3191 12.9951 26.2042 12.5729 24.8583L14.7896 23.9479C15.2382 25.2146 15.8847 26.158 16.7292 26.7781C17.5736 27.3983 18.5896 27.7083 19.7771 27.7083C21.0437 27.7083 22.0861 27.3917 22.9042 26.7583C23.7222 26.125 24.1312 25.2542 24.1312 24.1458C24.1312 22.9847 23.7684 22.0875 23.0427 21.4542C22.317 20.8208 20.9514 20.1743 18.9458 19.5146C17.0458 18.9076 15.6274 18.1028 14.6906 17.1C13.7538 16.0972 13.2854 14.8438 13.2854 13.3396C13.2854 11.8882 13.7538 10.6743 14.6906 9.69792C15.6274 8.72153 16.8479 8.16736 18.3521 8.03542V4.75H20.7271V8.03542C21.9146 8.16736 22.9371 8.5566 23.7948 9.20312C24.6524 9.84965 25.3055 10.6743 25.7542 11.6771L23.5375 12.6271C23.168 11.7826 22.6733 11.1691 22.0531 10.7865C21.433 10.4038 20.6215 10.2125 19.6187 10.2125C18.4049 10.2125 17.4417 10.4896 16.7292 11.0437C16.0167 11.5979 15.6604 12.35 15.6604 13.3C15.6604 14.3028 16.0562 15.1142 16.8479 15.7344C17.6396 16.3545 19.1042 16.9944 21.2417 17.6542C23.0361 18.2083 24.3621 19.0066 25.2198 20.049C26.0774 21.0913 26.5062 22.4042 26.5062 23.9875C26.5062 25.65 26.018 26.9892 25.0417 28.0052C24.0653 29.0212 22.6271 29.6743 20.7271 29.9646V33.25H18.3521Z" fill="#413CB9"/>
<path d="M5.04963 23.8466V24.3466H5.54963H7.55673H8.05673V23.8466V20.9268H10.9765H11.4765V20.4268V18.4197V17.9197H10.9765H8.05673V15V14.5H7.55673H5.54963H5.04963V15V17.9197H2.12988H1.62988V18.4197V20.4268V20.9268H2.12988H5.04963V23.8466Z" fill="#413CB9" stroke="#ECECF8"/>
</svg>
