<svg width="34" height="34" viewBox="0 0 34 34" fill="none" xmlns="http://www.w3.org/2000/svg">
<path d="M8.35003 32.2292C7.31398 32.2292 6.43066 31.8644 5.70009 31.1349C4.96951 30.4054 4.60422 29.5226 4.60422 28.4866C4.60422 27.4505 4.96829 26.5694 5.69644 25.8431C6.42456 25.1168 7.30872 24.7536 8.34893 24.7536C8.6567 24.7536 8.94065 24.7854 9.20078 24.8489C9.46088 24.9125 9.72222 25.0079 9.9848 25.135L13.5265 20.7406C13.0961 20.2338 12.7787 19.6663 12.5744 19.0379C12.37 18.4094 12.3223 17.7538 12.4313 17.0709L7.31491 15.36C6.98799 15.9321 6.54762 16.3811 5.9938 16.7071C5.43997 17.0332 4.80427 17.1962 4.08668 17.1962C3.05801 17.1962 2.17877 16.8326 1.44895 16.1055C0.719109 15.3784 0.354187 14.4955 0.354187 13.4568C0.354187 12.4181 0.718943 11.5357 1.44846 10.8096C2.17795 10.0836 3.06072 9.72058 4.09677 9.72058C5.13283 9.72058 6.01401 10.084 6.74031 10.8108C7.46661 11.5376 7.82976 12.4201 7.82976 13.4584C7.82976 13.5038 7.82749 13.5546 7.82296 13.611C7.81843 13.6673 7.81616 13.709 7.81616 13.7363L12.9543 15.5099C13.3158 14.8542 13.7657 14.337 14.3042 13.9584C14.8428 13.5797 15.4598 13.3168 16.1554 13.1697V7.72903C15.2437 7.51473 14.5336 7.05251 14.025 6.34236C13.5165 5.6322 13.2622 4.88023 13.2622 4.08642C13.2622 3.05946 13.6258 2.18069 14.3529 1.45011C15.08 0.719535 15.9629 0.354248 17.0016 0.354248C18.0403 0.354248 18.9227 0.719158 19.6488 1.44898C20.3748 2.1788 20.7378 3.05982 20.7378 4.09205C20.7378 4.8821 20.4799 5.6322 19.9641 6.34236C19.4483 7.05251 18.7418 7.51473 17.8446 7.72903V13.1697C18.5402 13.3168 19.1609 13.5797 19.7066 13.9584C20.2524 14.337 20.7106 14.8542 21.0811 15.5099L26.1838 13.7363C26.1748 13.7113 26.1703 13.6695 26.1703 13.611V13.4584C26.1703 12.4201 26.5329 11.5376 27.2581 10.8108C27.9833 10.084 28.864 9.72058 29.9 9.72058C30.9361 9.72058 31.8194 10.0841 32.55 10.8112C33.2805 11.5383 33.6458 12.4212 33.6458 13.46C33.6458 14.4987 33.2809 15.3811 32.5511 16.1071C31.8213 16.8332 30.942 17.1962 29.9134 17.1962C29.1987 17.1962 28.5601 17.0309 27.9975 16.7003C27.435 16.3698 26.9975 15.923 26.6851 15.36L21.5687 17.0709C21.6868 17.7538 21.645 18.4117 21.4434 19.0447C21.2418 19.6776 20.9185 20.2384 20.4735 20.7269L24.0153 25.135C24.2659 25.0079 24.5242 24.9125 24.7903 24.8489C25.0564 24.7854 25.3382 24.7536 25.6356 24.7536C26.698 24.7536 27.5903 25.1162 28.3125 25.8414C29.0347 26.5667 29.3958 27.4473 29.3958 28.4834C29.3958 29.5194 29.0311 30.4027 28.3016 31.1333C27.5721 31.8639 26.6893 32.2292 25.6532 32.2292C24.6172 32.2292 23.736 31.8654 23.0097 31.1378C22.2834 30.4103 21.9202 29.5268 21.9202 28.4875C21.9202 28.0343 21.9831 27.6257 22.1088 27.2618C22.2345 26.898 22.4332 26.5395 22.7049 26.1866L19.1631 21.7649C18.5045 22.139 17.7787 22.3261 16.9856 22.3261C16.1926 22.3261 15.4691 22.139 14.8151 21.7649L11.2952 26.222C11.5585 26.5671 11.7551 26.9176 11.885 27.2736C12.0149 27.6297 12.0798 28.0343 12.0798 28.4875C12.0798 29.5268 11.7172 30.4103 10.992 31.1378C10.2667 31.8654 9.38609 32.2292 8.35003 32.2292ZM4.09564 15.5888C4.69076 15.5888 5.19402 15.3819 5.60542 14.9682C6.01679 14.5543 6.22248 14.0499 6.22248 13.4547C6.22248 12.8596 6.01558 12.3564 5.60177 11.945C5.18796 11.5336 4.6835 11.3279 4.08838 11.3279C3.49326 11.3279 2.99 11.5348 2.5786 11.9486C2.16723 12.3624 1.96154 12.8669 1.96154 13.462C1.96154 14.0571 2.16844 14.5604 2.58225 14.9718C2.99606 15.3831 3.50052 15.5888 4.09564 15.5888ZM8.34564 30.6219C8.94076 30.6219 9.44402 30.415 9.85542 30.0012C10.2668 29.5873 10.4725 29.0829 10.4725 28.4878C10.4725 27.8926 10.2656 27.3894 9.85177 26.978C9.43796 26.5666 8.9335 26.3609 8.33838 26.3609C7.74326 26.3609 7.24 26.5678 6.8286 26.9816C6.41723 27.3954 6.21154 27.8999 6.21154 28.495C6.21154 29.0901 6.41844 29.5934 6.83225 30.0048C7.24606 30.4162 7.75052 30.6219 8.34564 30.6219ZM17.0037 6.22251C17.5988 6.22251 18.102 6.0156 18.5134 5.60179C18.9248 5.18799 19.1305 4.68352 19.1305 4.0884C19.1305 3.49329 18.9236 2.99003 18.5098 2.57863C18.096 2.16725 17.5915 1.96156 16.9964 1.96156C16.4013 1.96156 15.898 2.16847 15.4866 2.58228C15.0753 2.99608 14.8696 3.50055 14.8696 4.09566C14.8696 4.69078 15.0765 5.19404 15.4902 5.60544C15.9041 6.01682 16.4085 6.22251 17.0037 6.22251ZM17.0109 20.7188C17.8464 20.7188 18.5552 20.4241 19.1373 19.8347C19.7194 19.2454 20.0104 18.5329 20.0104 17.6975C20.0104 16.862 19.7181 16.1532 19.1333 15.5711C18.5486 14.989 17.8375 14.698 17 14.698C16.1718 14.698 15.463 14.9903 14.8737 15.5751C14.2843 16.1598 13.9896 16.8709 13.9896 17.7084C13.9896 18.5366 14.2843 19.2454 14.8737 19.8347C15.463 20.4241 16.1755 20.7188 17.0109 20.7188ZM25.6617 30.6219C26.2568 30.6219 26.76 30.415 27.1714 30.0012C27.5828 29.5873 27.7885 29.0829 27.7885 28.4878C27.7885 27.8926 27.5816 27.3894 27.1678 26.978C26.754 26.5666 26.2495 26.3609 25.6544 26.3609C25.0593 26.3609 24.556 26.5678 24.1446 26.9816C23.7333 27.3954 23.5276 27.8999 23.5276 28.495C23.5276 29.0901 23.7345 29.5934 24.1483 30.0048C24.5621 30.4162 25.0665 30.6219 25.6617 30.6219ZM29.9117 15.5888C30.5068 15.5888 31.01 15.3819 31.4214 14.9682C31.8328 14.5543 32.0385 14.0499 32.0385 13.4547C32.0385 12.8596 31.8316 12.3564 31.4178 11.945C31.004 11.5336 30.4995 11.3279 29.9044 11.3279C29.3093 11.3279 28.806 11.5348 28.3946 11.9486C27.9833 12.3624 27.7776 12.8669 27.7776 13.462C27.7776 14.0571 27.9845 14.5604 28.3983 14.9718C28.8121 15.3831 29.3166 15.5888 29.9117 15.5888Z" fill="#413CB9"/>
</svg>
