<svg width="38" height="38" viewBox="0 0 38 38" fill="none" xmlns="http://www.w3.org/2000/svg">
<path d="M5.75482 30.8749C5.24127 30.8749 4.81348 30.7039 4.47145 30.3618C4.1294 30.0198 3.95837 29.592 3.95837 29.0785V23.5856C4.93476 23.2526 5.73608 22.6741 6.36231 21.85C6.98854 21.0258 7.30166 20.0758 7.30166 19C7.30166 17.9241 6.98854 16.9675 6.36231 16.1302C5.73608 15.2928 4.93476 14.7209 3.95837 14.4144V8.92145C3.95837 8.4079 4.1294 7.98011 4.47145 7.63808C4.81348 7.29603 5.24127 7.125 5.75482 7.125H32.2452C32.7587 7.125 33.1865 7.29603 33.5286 7.63808C33.8706 7.98011 34.0416 8.4079 34.0416 8.92145V29.0785C34.0416 29.592 33.8706 30.0198 33.5286 30.3618C33.1865 30.7039 32.7587 30.8749 32.2452 30.8749H5.75482ZM5.75482 29.0785H32.2452V8.92145H5.75482V13.1599C6.77383 13.8156 7.58579 14.6504 8.1907 15.6643C8.79562 16.6783 9.09807 17.7901 9.09807 19C9.09807 20.2098 8.79562 21.3217 8.1907 22.3356C7.58579 23.3495 6.77383 24.1843 5.75482 24.84V29.0785ZM13.8968 24.8613L28.1894 20.97C28.5974 20.8482 28.9095 20.6523 29.1257 20.3823C29.3419 20.1123 29.3891 19.7734 29.2673 19.3654C29.1557 18.9573 28.9359 18.6802 28.6081 18.5341C28.2803 18.388 27.9255 18.3626 27.5439 18.458L23.4668 19.542L16.9569 13.2513L15.1269 13.6654L19.1279 20.6929L14.6276 21.9048L12.5845 20.2484L11.6193 20.5833L13.8968 24.8613Z" fill="#413CB9"/>
</svg>
