<svg width="22" height="21" viewBox="0 0 22 21" fill="none" xmlns="http://www.w3.org/2000/svg">
<path d="M12.2734 19.675C12.1223 19.9665 11.8921 20.1342 11.5825 20.1781C11.273 20.2219 11.0151 20.1191 10.8086 19.8698L7.62978 16.0296C7.49245 15.8637 7.42251 15.6773 7.41996 15.4703C7.4174 15.2633 7.48145 15.0771 7.61212 14.9117L12.1524 8.69659L5.29375 12.1111C5.10836 12.2129 4.91648 12.2453 4.71811 12.2083C4.51973 12.1713 4.35061 12.0683 4.21073 11.8994L1.0562 8.08862C0.854851 7.84538 0.802339 7.57309 0.898667 7.27173C0.995023 6.97038 1.19539 6.76655 1.49975 6.66027L20.1299 0.81907C20.4977 0.706358 20.8103 0.805522 21.0678 1.11656C21.3253 1.4276 21.3664 1.75573 21.1911 2.10095L12.2734 19.675Z" fill="white"/>
</svg>
