<svg width="29" height="29" viewBox="0 0 29 29" fill="none" xmlns="http://www.w3.org/2000/svg">
<path d="M14.5026 13.9952C15.0049 13.9952 15.4348 13.8156 15.7923 13.4564C16.1498 13.0972 16.3285 12.6664 16.3285 12.1641C16.3285 11.6617 16.1489 11.2318 15.7897 10.8744C15.4305 10.5169 14.9998 10.3382 14.4974 10.3382C13.9951 10.3382 13.5652 10.5177 13.2077 10.8769C12.8502 11.2361 12.6715 11.6669 12.6715 12.1693C12.6715 12.6716 12.8511 13.1015 13.2103 13.459C13.5695 13.8164 14.0003 13.9952 14.5026 13.9952ZM14.5 24.1766C17.0562 21.8986 18.9816 19.7366 20.2761 17.6904C21.5707 15.6442 22.218 13.8808 22.218 12.4C22.218 10.0722 21.4748 8.16507 19.9883 6.67852C18.5019 5.19197 16.6724 4.4487 14.5 4.4487C12.3276 4.4487 10.4981 5.19197 9.01172 6.67852C7.52527 8.16507 6.78204 10.0722 6.78204 12.4C6.78204 13.8808 7.44017 15.6442 8.75642 17.6904C10.0727 19.7366 11.9872 21.8986 14.5 24.1766ZM14.5146 25.6035C14.3957 25.6035 14.2816 25.5859 14.1724 25.5508C14.0633 25.5156 13.9638 25.4629 13.8741 25.3926C11.0516 22.8678 8.9434 20.5232 7.54939 18.3587C6.15538 16.1942 5.45837 14.2079 5.45837 12.4C5.45837 9.57309 6.36852 7.32053 8.18881 5.64232C10.0091 3.96413 12.1128 3.12503 14.5 3.12503C16.8872 3.12503 18.9909 3.96413 20.8112 5.64232C22.6315 7.32053 23.5417 9.57309 23.5417 12.4C23.5417 14.2038 22.8446 16.189 21.4506 18.3556C20.0566 20.5222 17.9484 22.8678 15.126 25.3926C15.0437 25.4629 14.951 25.5156 14.8478 25.5508C14.7446 25.5859 14.6335 25.6035 14.5146 25.6035Z" fill="#413CB9"/>
</svg>
