<svg width="23" height="22" viewBox="0 0 23 22" fill="none" xmlns="http://www.w3.org/2000/svg">
<path d="M6.75007 8.75445C6.42582 8.75445 6.1791 8.60936 6.00991 8.31919C5.84074 8.02902 5.84964 7.74558 6.0366 7.46887L10.1446 0.836893C10.3015 0.572157 10.5363 0.439789 10.849 0.439789C11.1616 0.439789 11.4017 0.572157 11.5693 0.836893L15.6772 7.46887C15.8567 7.74558 15.8618 8.02902 15.6927 8.31919C15.5235 8.60936 15.2768 8.75445 14.9525 8.75445H6.75007ZM17.3745 21.7179C16.0516 21.7179 14.9432 21.2692 14.0496 20.3718C13.1559 19.4743 12.709 18.3641 12.709 17.0412C12.709 15.7182 13.1559 14.6099 14.0496 13.7162C14.9432 12.8225 16.0516 12.3757 17.3745 12.3757C18.6975 12.3757 19.8077 12.8225 20.7051 13.7162C21.6025 14.6099 22.0513 15.7182 22.0513 17.0412C22.0513 18.3641 21.6025 19.4743 20.7051 20.3718C19.8077 21.2692 18.6975 21.7179 17.3745 21.7179ZM1.62079 21.0224C1.38231 21.0224 1.1829 20.9417 1.02258 20.7804C0.862264 20.6191 0.782104 20.4192 0.782104 20.1807V13.7685C0.782104 13.5373 0.86277 13.3397 1.0241 13.1758C1.18543 13.0118 1.38534 12.9298 1.62383 12.9298H8.03597C8.27446 12.9298 8.47386 13.0123 8.63418 13.1773C8.7945 13.3423 8.87466 13.5404 8.87466 13.7716V20.1837C8.87466 20.4222 8.79399 20.6216 8.63266 20.7819C8.47133 20.9422 8.27142 21.0224 8.03294 21.0224H1.62079ZM17.3823 20.3942C18.3142 20.3942 19.1047 20.0689 19.7539 19.4183C20.403 18.7678 20.7276 17.9747 20.7276 17.039C20.7276 16.1034 20.4023 15.3129 19.7517 14.6674C19.1011 14.022 18.308 13.6993 17.3724 13.6993C16.4367 13.6993 15.6462 14.0231 15.0008 14.6707C14.3554 15.3183 14.0327 16.111 14.0327 17.0489C14.0327 17.9808 14.3565 18.7713 15.0041 19.4205C15.6517 20.0696 16.4444 20.3942 17.3823 20.3942ZM2.10578 19.6987H7.55099V14.2535H2.10578V19.6987ZM7.60708 7.43075H14.1068L10.8513 2.2077L7.60708 7.43075Z" fill="#413CB9"/>
</svg>
