<svg width="21" height="23" viewBox="0 0 21 23" fill="none" xmlns="http://www.w3.org/2000/svg">
<path d="M1.93276 22.5833C1.47525 22.5833 1.08042 22.4172 0.74827 22.0851C0.41612 21.7529 0.250046 21.3581 0.250046 20.9006V4.00648C0.250046 3.54898 0.41612 3.15415 0.74827 2.822C1.08042 2.48985 1.47525 2.32377 1.93276 2.32377H4.0866V0.282104H5.55613V2.32377H14.8221V0.282104H16.258V2.32377H18.4006C18.8581 2.32377 19.2529 2.48985 19.5851 2.822C19.9172 3.15415 20.0833 3.54898 20.0833 4.00648V20.9006C20.0833 21.3581 19.9172 21.7529 19.5851 22.0851C19.2529 22.4172 18.8581 22.5833 18.4006 22.5833H1.93276ZM1.93276 21.2596H18.4006C18.4904 21.2596 18.5726 21.2222 18.6474 21.1474C18.7222 21.0726 18.7596 20.9904 18.7596 20.9006V9.31254H1.57375V20.9006C1.57375 20.9904 1.61114 21.0726 1.68592 21.1474C1.76072 21.2222 1.843 21.2596 1.93276 21.2596ZM1.57375 7.98887H18.7596V4.00648C18.7596 3.91673 18.7222 3.83445 18.6474 3.75965C18.5726 3.68486 18.4904 3.64747 18.4006 3.64747H1.93276C1.843 3.64747 1.76072 3.68486 1.68592 3.75965C1.61114 3.83445 1.57375 3.91673 1.57375 4.00648V7.98887ZM10.1667 13.9231C9.88101 13.9231 9.63758 13.8225 9.43641 13.6213C9.23524 13.4202 9.13465 13.1767 9.13465 12.8911C9.13465 12.6054 9.23524 12.362 9.43641 12.1608C9.63758 11.9596 9.88101 11.859 10.1667 11.859C10.4524 11.859 10.6958 11.9596 10.897 12.1608C11.0981 12.362 11.1987 12.6054 11.1987 12.8911C11.1987 13.1767 11.0981 13.4202 10.897 13.6213C10.6958 13.8225 10.4524 13.9231 10.1667 13.9231ZM5.50002 13.9231C5.21434 13.9231 4.97091 13.8225 4.76974 13.6213C4.56857 13.4202 4.46798 13.1767 4.46798 12.8911C4.46798 12.6054 4.56857 12.362 4.76974 12.1608C4.97091 11.9596 5.21434 11.859 5.50002 11.859C5.7857 11.859 6.02912 11.9596 6.23029 12.1608C6.43146 12.362 6.53205 12.6054 6.53205 12.8911C6.53205 13.1767 6.43146 13.4202 6.23029 13.6213C6.02912 13.8225 5.7857 13.9231 5.50002 13.9231ZM14.8334 13.9231C14.5477 13.9231 14.3042 13.8225 14.1031 13.6213C13.9019 13.4202 13.8013 13.1767 13.8013 12.8911C13.8013 12.6054 13.9019 12.362 14.1031 12.1608C14.3042 11.9596 14.5477 11.859 14.8334 11.859C15.119 11.859 15.3625 11.9596 15.5636 12.1608C15.7648 12.362 15.8654 12.6054 15.8654 12.8911C15.8654 13.1767 15.7648 13.4202 15.5636 13.6213C15.3625 13.8225 15.119 13.9231 14.8334 13.9231ZM10.1667 18.5C9.88101 18.5 9.63758 18.3994 9.43641 18.1983C9.23524 17.9971 9.13465 17.7537 9.13465 17.468C9.13465 17.1823 9.23524 16.9389 9.43641 16.7377C9.63758 16.5365 9.88101 16.4359 10.1667 16.4359C10.4524 16.4359 10.6958 16.5365 10.897 16.7377C11.0981 16.9389 11.1987 17.1823 11.1987 17.468C11.1987 17.7537 11.0981 17.9971 10.897 18.1983C10.6958 18.3994 10.4524 18.5 10.1667 18.5ZM5.50002 18.5C5.21434 18.5 4.97091 18.3994 4.76974 18.1983C4.56857 17.9971 4.46798 17.7537 4.46798 17.468C4.46798 17.1823 4.56857 16.9389 4.76974 16.7377C4.97091 16.5365 5.21434 16.4359 5.50002 16.4359C5.7857 16.4359 6.02912 16.5365 6.23029 16.7377C6.43146 16.9389 6.53205 17.1823 6.53205 17.468C6.53205 17.7537 6.43146 17.9971 6.23029 18.1983C6.02912 18.3994 5.7857 18.5 5.50002 18.5ZM14.8334 18.5C14.5477 18.5 14.3042 18.3994 14.1031 18.1983C13.9019 17.9971 13.8013 17.7537 13.8013 17.468C13.8013 17.1823 13.9019 16.9389 14.1031 16.7377C14.3042 16.5365 14.5477 16.4359 14.8334 16.4359C15.119 16.4359 15.3625 16.5365 15.5636 16.7377C15.7648 16.9389 15.8654 17.1823 15.8654 17.468C15.8654 17.7537 15.7648 17.9971 15.5636 18.1983C15.3625 18.3994 15.119 18.5 14.8334 18.5Z" fill="#413CB9"/>
</svg>
