<svg width="17" height="15" viewBox="0 0 17 15" fill="none" xmlns="http://www.w3.org/2000/svg">
<path d="M8.50162 14.7081L0.999747 5.64563C0.844862 5.45853 0.804468 5.24907 0.878566 5.01726C0.952687 4.78544 1.10681 4.62866 1.34094 4.5469L15.6718 0.0536707C15.9547 -0.0330316 16.1952 0.0432485 16.3933 0.28251C16.5913 0.521771 16.623 0.774179 16.4881 1.03973L9.62834 14.5582C9.51215 14.7825 9.33502 14.9115 9.09693 14.9452C8.85885 14.9789 8.66041 14.8999 8.50162 14.7081ZM8.91578 13.5157L15.0905 1.3883L2.20206 5.40537L4.75611 8.49071L9.5353 6.1133L6.37108 10.4416L8.91578 13.5157ZM5.57587 9.481L2.20206 5.40537L8.91578 13.5157L5.57587 9.481Z" fill="#413CB9"/>
</svg>
