<svg width="23" height="23" viewBox="0 0 23 23" fill="none" xmlns="http://www.w3.org/2000/svg">
<path d="M10.5604 19.175L9.34584 18.0521C7.4514 16.2951 5.80904 14.6184 4.41876 13.0218C3.02848 11.4253 2.33334 9.75622 2.33334 8.01456C2.33334 6.63956 2.7955 5.4899 3.7198 4.5656C4.64411 3.64129 5.78612 3.17914 7.14584 3.17914C7.92501 3.17914 8.69654 3.36629 9.46042 3.7406C10.2243 4.1149 10.9042 4.72983 11.5 5.58539C12.1722 4.72983 12.8674 4.1149 13.5854 3.7406C14.3035 3.36629 15.0597 3.17914 15.8542 3.17914C17.2139 3.17914 18.3559 3.64129 19.2802 4.5656C20.2045 5.4899 20.6667 6.63956 20.6667 8.01456C20.6667 9.75622 19.9715 11.4253 18.5813 13.0218C17.191 14.6184 15.5486 16.2951 13.6542 18.0521L12.4396 19.175C12.1799 19.4194 11.8667 19.5416 11.5 19.5416C11.1333 19.5416 10.8201 19.4194 10.5604 19.175ZM10.9042 7.09789C10.4917 6.34928 9.94931 5.73817 9.27709 5.26455C8.60487 4.79094 7.89445 4.55414 7.14584 4.55414C6.13751 4.55414 5.31251 4.87879 4.67084 5.5281C4.02918 6.1774 3.70834 7.00622 3.70834 8.01456C3.70834 8.90067 4.00626 9.82879 4.60209 10.7989C5.19793 11.7691 5.90834 12.7125 6.73334 13.6291C7.55834 14.5458 8.4139 15.3975 9.30001 16.1843C10.1861 16.9712 10.9195 17.6319 11.5 18.1666C12.0806 17.6472 12.8139 16.9903 13.7 16.1958C14.5861 15.4014 15.4417 14.542 16.2667 13.6177C17.0917 12.6934 17.8021 11.7462 18.3979 10.776C18.9938 9.80587 19.2917 8.88539 19.2917 8.01456C19.2917 7.00622 18.967 6.1774 18.3177 5.5281C17.6684 4.87879 16.8472 4.55414 15.8542 4.55414C15.0903 4.55414 14.376 4.78712 13.7115 5.2531C13.0469 5.71907 12.4931 6.334 12.05 7.09789C11.9736 7.22011 11.8896 7.30796 11.7979 7.36143C11.7063 7.4149 11.5993 7.44164 11.4771 7.44164C11.3549 7.44164 11.2441 7.4149 11.1448 7.36143C11.0455 7.30796 10.9653 7.22011 10.9042 7.09789Z" fill="#1C1C26"/>
</svg>
