<svg width="23" height="23" viewBox="0 0 23 23" fill="none" xmlns="http://www.w3.org/2000/svg">
<path d="M10.5604 19.175L9.34584 18.0521C7.4514 16.2951 5.80904 14.6184 4.41876 13.0218C3.02848 11.4253 2.33334 9.75622 2.33334 8.01456C2.33334 6.63956 2.7955 5.4899 3.7198 4.5656C4.64411 3.64129 5.78612 3.17914 7.14584 3.17914C7.92501 3.17914 8.69654 3.36629 9.46043 3.7406C10.2243 4.1149 10.9042 4.72983 11.5 5.58539C12.1722 4.72983 12.8674 4.1149 13.5854 3.7406C14.3035 3.36629 15.0597 3.17914 15.8542 3.17914C17.2139 3.17914 18.3559 3.64129 19.2802 4.5656C20.2045 5.4899 20.6667 6.63956 20.6667 8.01456C20.6667 9.75622 19.9715 11.4253 18.5813 13.0218C17.191 14.6184 15.5486 16.2951 13.6542 18.0521L12.4396 19.175C12.1799 19.4194 11.8667 19.5416 11.5 19.5416C11.1333 19.5416 10.8201 19.4194 10.5604 19.175Z" fill="white"/>
</svg>
