<svg width="22" height="22" viewBox="0 0 22 22" fill="none" xmlns="http://www.w3.org/2000/svg">
<path d="M5.3165 16.2003C6.23199 15.5692 7.14278 15.0801 8.04886 14.7328C8.95495 14.3855 9.93861 14.2119 10.9998 14.2119C12.061 14.2119 13.047 14.3855 13.9578 14.7328C14.8686 15.0801 15.7818 15.5692 16.6972 16.2003C17.3636 15.4282 17.8586 14.6129 18.1824 13.7545C18.5062 12.8961 18.6681 11.9779 18.6681 11C18.6681 8.83761 17.9306 7.01897 16.4557 5.54407C14.9808 4.06918 13.1622 3.33174 10.9998 3.33174C8.83743 3.33174 7.01878 4.06918 5.54388 5.54407C4.069 7.01897 3.33155 8.83761 3.33155 11C3.33155 11.9779 3.49579 12.8961 3.82426 13.7545C4.15273 14.6129 4.65015 15.4282 5.3165 16.2003ZM10.9948 11.52C10.1708 11.52 9.47762 11.2372 8.91529 10.6715C8.35295 10.1059 8.07177 9.41105 8.07177 8.58701C8.07177 7.76299 8.35461 7.0698 8.92027 6.50746C9.48591 5.94513 10.1808 5.66397 11.0048 5.66397C11.8288 5.66397 12.522 5.94679 13.0843 6.51243C13.6467 7.07808 13.9279 7.77292 13.9279 8.59696C13.9279 9.42099 13.645 10.1142 13.0794 10.6765C12.5137 11.2389 11.8189 11.52 10.9948 11.52ZM11.0105 19.7083C9.8035 19.7083 8.6711 19.4809 7.61333 19.0261C6.55557 18.5713 5.63156 17.9481 4.8413 17.1566C4.05106 16.3651 3.42854 15.4429 2.97373 14.39C2.51891 13.337 2.2915 12.2065 2.2915 10.9983C2.2915 9.79014 2.51891 8.66015 2.97373 7.60835C3.42854 6.55654 4.05169 5.63488 4.84318 4.84337C5.63469 4.05187 6.55691 3.42872 7.60984 2.97392C8.66279 2.5191 9.79334 2.29169 11.0015 2.29169C12.2097 2.29169 13.3397 2.5191 14.3915 2.97392C15.4433 3.42872 16.3649 4.05187 17.1564 4.84337C17.9479 5.63488 18.5711 6.55678 19.0259 7.60909C19.4807 8.66139 19.7081 9.78812 19.7081 10.9893C19.7081 12.1963 19.4807 13.3287 19.0259 14.3865C18.5711 15.4442 17.9479 16.3683 17.1564 17.1585C16.3649 17.9488 15.443 18.5713 14.3907 19.0261C13.3384 19.4809 12.2117 19.7083 11.0105 19.7083ZM10.9998 18.6683C11.8518 18.6683 12.6921 18.5328 13.5206 18.2619C14.3492 17.991 15.1295 17.553 15.8617 16.9477C15.1295 16.4095 14.3542 15.9923 13.5356 15.6961C12.7171 15.4 11.8718 15.2519 10.9998 15.2519C10.1278 15.2519 9.28106 15.3985 8.45959 15.6917C7.63811 15.9849 6.86717 16.4036 6.14677 16.9477C6.87305 17.553 7.65045 17.991 8.47898 18.2619C9.30751 18.5328 10.1478 18.6683 10.9998 18.6683ZM11.0011 10.48C11.5491 10.48 12.0005 10.3021 12.3554 9.94638C12.7103 9.59064 12.8878 9.13877 12.8878 8.59077C12.8878 8.04275 12.7099 7.59129 12.3542 7.23637C11.9985 6.88145 11.5466 6.70399 10.9986 6.70399C10.4506 6.70399 9.99912 6.88187 9.6442 7.23761C9.28928 7.59334 9.11182 8.04521 9.11182 8.59322C9.11182 9.14122 9.2897 9.59268 9.64544 9.9476C10.0012 10.3025 10.453 10.48 11.0011 10.48Z" fill="white"/>
</svg>
