<svg width="20" height="12" viewBox="0 0 20 12" fill="none" xmlns="http://www.w3.org/2000/svg">
<path d="M13.6666 2.125C12.5208 2.125 11.5468 2.52604 10.7448 3.32812C9.94267 4.13021 9.54163 5.10417 9.54163 6.25C9.54163 7.39583 9.94267 8.36979 10.7448 9.17188C11.5468 9.97396 12.5208 10.375 13.6666 10.375C14.8125 10.375 15.7864 9.97396 16.5885 9.17188C17.3906 8.36979 17.7916 7.39583 17.7916 6.25C17.7916 5.10417 17.3906 4.13021 16.5885 3.32812C15.7864 2.52604 14.8125 2.125 13.6666 2.125ZM13.6666 0.75C15.1944 0.75 16.493 1.28472 17.5625 2.35417C18.6319 3.42361 19.1666 4.72222 19.1666 6.25C19.1666 7.77778 18.6319 9.07639 17.5625 10.1458C16.493 11.2153 15.1944 11.75 13.6666 11.75C12.2611 11.75 11.0427 11.2878 10.0114 10.3635C8.98017 9.43924 8.38052 8.29722 8.21246 6.9375L0.833294 6.9375V5.5625L8.21246 5.5625C8.38052 4.20278 8.98017 3.06076 10.0114 2.13646C11.0427 1.21215 12.2611 0.75 13.6666 0.75Z" fill="#413CB9"/>
</svg>
