<svg width="20" height="12" viewBox="0 0 20 12" fill="none" xmlns="http://www.w3.org/2000/svg">
<path d="M6.33337 10.375C7.47921 10.375 8.45317 9.97396 9.25525 9.17188C10.0573 8.36979 10.4584 7.39583 10.4584 6.25C10.4584 5.10417 10.0573 4.13021 9.25525 3.32812C8.45317 2.52604 7.47921 2.125 6.33337 2.125C5.18754 2.125 4.21358 2.52604 3.4115 3.32812C2.60942 4.13021 2.20837 5.10417 2.20837 6.25C2.20837 7.39583 2.60942 8.36979 3.4115 9.17188C4.21358 9.97396 5.18754 10.375 6.33337 10.375ZM6.33337 11.75C4.8056 11.75 3.50698 11.2153 2.43754 10.1458C1.3681 9.07639 0.833374 7.77778 0.833374 6.25C0.833374 4.72222 1.3681 3.42361 2.43754 2.35417C3.50698 1.28472 4.8056 0.75 6.33337 0.75C7.73893 0.75 8.95733 1.21215 9.98858 2.13646C11.0198 3.06076 11.6195 4.20278 11.7875 5.5625H19.1667V6.9375H11.7875C11.6195 8.29722 11.0198 9.43924 9.98858 10.3635C8.95733 11.2878 7.73893 11.75 6.33337 11.75Z" fill="#413CB9"/>
</svg>
