<svg width="30" height="30" viewBox="0 0 30 30" fill="none" xmlns="http://www.w3.org/2000/svg">
<path d="M15.0005 4.09091C12.0379 4.09091 11.666 4.10387 10.5024 4.15682C9.34112 4.21 8.54841 4.39387 7.8548 4.66364C7.13732 4.94228 6.5287 5.315 5.92236 5.92159C5.31556 6.52796 4.94284 7.13659 4.6633 7.85387C4.39286 8.54773 4.20877 9.34068 4.1565 10.5016C4.10446 11.6652 4.09082 12.0373 4.09082 15C4.09082 17.9627 4.104 18.3334 4.15673 19.497C4.21014 20.6584 4.39399 21.4511 4.66353 22.1448C4.94239 22.8623 5.3151 23.4709 5.92167 24.0773C6.52779 24.6841 7.13641 25.0577 7.85343 25.3364C8.5475 25.6061 9.34043 25.79 10.5015 25.8432C11.6651 25.8961 12.0367 25.9091 14.9991 25.9091C17.962 25.9091 18.3327 25.8961 19.4963 25.8432C20.6576 25.79 21.4512 25.6061 22.1453 25.3364C22.8625 25.0577 23.4702 24.6841 24.0764 24.0773C24.6832 23.4709 25.0559 22.8623 25.3354 22.145C25.6036 21.4511 25.7877 20.6582 25.8422 19.4973C25.8945 18.3336 25.9081 17.9627 25.9081 15C25.9081 12.0373 25.8945 11.6655 25.8422 10.5018C25.7877 9.34046 25.6036 8.54773 25.3354 7.85409C25.0559 7.13659 24.6832 6.52796 24.0764 5.92159C23.4696 5.31478 22.8628 4.94205 22.1446 4.66364C21.4492 4.39387 20.656 4.21 19.4947 4.15682C18.3311 4.10387 17.9606 4.09091 14.9971 4.09091H15.0005ZM14.0219 6.05682C14.3123 6.05637 14.6364 6.05682 15.0005 6.05682C17.9131 6.05682 18.2583 6.06728 19.4085 6.11955C20.4721 6.16818 21.0494 6.34591 21.4339 6.49523C21.943 6.69296 22.306 6.92932 22.6875 7.31114C23.0693 7.69296 23.3057 8.05659 23.5039 8.56568C23.6532 8.94977 23.8311 9.52705 23.8795 10.5907C23.9318 11.7407 23.9432 12.0861 23.9432 14.9975C23.9432 17.9089 23.9318 18.2543 23.8795 19.4043C23.8309 20.468 23.6532 21.0452 23.5039 21.4293C23.3061 21.9384 23.0693 22.3009 22.6875 22.6825C22.3057 23.0643 21.9432 23.3007 21.4339 23.4984C21.0499 23.6484 20.4721 23.8257 19.4085 23.8743C18.2586 23.9266 17.9131 23.938 15.0005 23.938C12.0876 23.938 11.7424 23.9266 10.5924 23.8743C9.52884 23.8252 8.95158 23.6475 8.56682 23.4982C8.05775 23.3005 7.69412 23.0641 7.31231 22.6823C6.93051 22.3005 6.69415 21.9377 6.49597 21.4284C6.34666 21.0443 6.16871 20.467 6.1203 19.4034C6.06803 18.2534 6.05758 17.908 6.05758 14.9948C6.05758 12.0816 6.06803 11.738 6.1203 10.588C6.16894 9.52432 6.34666 8.94705 6.49597 8.5625C6.6937 8.05341 6.93051 7.68977 7.31231 7.30796C7.69412 6.92614 8.05775 6.68978 8.56682 6.49159C8.95135 6.34159 9.52884 6.16432 10.5924 6.11546C11.5988 6.07 11.9888 6.05637 14.0219 6.05409V6.05682ZM20.8235 7.86818C20.1008 7.86818 19.5144 8.45387 19.5144 9.17682C19.5144 9.89955 20.1008 10.4859 20.8235 10.4859C21.5462 10.4859 22.1325 9.89955 22.1325 9.17682C22.1325 8.45409 21.5462 7.86773 20.8235 7.86773V7.86818ZM15.0005 9.39773C11.9067 9.39773 9.39839 11.9061 9.39839 15C9.39839 18.0939 11.9067 20.6011 15.0005 20.6011C18.0943 20.6011 20.6017 18.0939 20.6017 15C20.6017 11.9061 18.094 9.39773 15.0003 9.39773H15.0005ZM15.0005 11.3636C17.0086 11.3636 18.6367 12.9916 18.6367 15C18.6367 17.0082 17.0086 18.6364 15.0005 18.6364C12.9921 18.6364 11.3642 17.0082 11.3642 15C11.3642 12.9916 12.9921 11.3636 15.0005 11.3636Z" fill="#413CB9"/>
</svg>
