<svg width="30" height="30" viewBox="0 0 30 30" fill="none" xmlns="http://www.w3.org/2000/svg">
<path fill-rule="evenodd" clip-rule="evenodd" d="M24.7144 10.111C24.7229 10.3296 24.7257 10.5481 24.7257 10.7667C24.7257 17.3945 20.0634 25.0458 11.5377 25.0458C8.91872 25.0458 6.48347 24.2111 4.43164 22.7902C4.79434 22.8299 5.16269 22.8598 5.53669 22.8598C7.70816 22.8598 9.70818 22.0548 11.2946 20.7034C9.26635 20.6736 7.55367 19.2129 6.96299 17.2255C7.24656 17.2852 7.53858 17.3151 7.83721 17.3151C8.25832 17.3151 8.66718 17.2555 9.05908 17.1363C6.93659 16.6792 5.33792 14.6521 5.33792 12.2177C5.33792 12.1879 5.33792 12.1779 5.33792 12.158C5.96345 12.5256 6.67941 12.7541 7.43966 12.7839C6.19425 11.8796 5.37558 10.3395 5.37558 8.60058C5.37558 7.68641 5.60356 6.82188 6.00488 6.07663C8.29034 9.11725 11.7073 11.1145 15.5594 11.3232C15.4802 10.9556 15.4397 10.5681 15.4397 10.1806C15.4397 7.40827 17.5151 5.16254 20.0756 5.16254C21.4087 5.16254 22.6126 5.76876 23.4577 6.74255C24.5156 6.52395 25.5067 6.10664 26.4035 5.53031C26.0559 6.70284 25.322 7.68636 24.363 8.30243C25.3013 8.18319 26.1963 7.91511 27.0263 7.51764C26.4035 8.52124 25.6197 9.40547 24.7144 10.111Z" fill="#413CB9"/>
</svg>
