<svg width="24" height="21" viewBox="0 0 24 21" fill="none" xmlns="http://www.w3.org/2000/svg">
<path fill-rule="evenodd" clip-rule="evenodd" d="M20.7147 5.11103C20.7231 5.32964 20.7259 5.54816 20.7259 5.76677C20.7259 12.3945 16.0637 20.0459 7.53792 20.0459C4.91896 20.0459 2.48371 19.2112 0.431885 17.7902C0.794582 17.83 1.16293 17.8598 1.53694 17.8598C3.70841 17.8598 5.70842 17.0548 7.29487 15.7034C5.26659 15.6736 3.55392 14.2129 2.96324 12.2256C3.2468 12.2852 3.53882 12.3151 3.83746 12.3151C4.25856 12.3151 4.66742 12.2556 5.05932 12.1363C2.93684 11.6792 1.33816 9.6522 1.33816 7.21772C1.33816 7.18791 1.33816 7.17792 1.33816 7.15804C1.9637 7.5257 2.67966 7.75413 3.43991 7.78394C2.19449 6.8797 1.37582 5.33956 1.37582 3.60064C1.37582 2.68647 1.6038 1.82194 2.00513 1.07669C4.29059 4.11731 7.7075 6.11461 11.5596 6.32328C11.4805 5.95562 11.44 5.56819 11.44 5.18066C11.44 2.40833 13.5153 0.162598 16.0759 0.162598C17.4089 0.162598 18.6129 0.768821 19.4579 1.74261C20.5159 1.52401 21.5069 1.1067 22.4038 0.53037C22.0562 1.7029 21.3223 2.68642 20.3632 3.30249C21.3015 3.18325 22.1965 2.91517 23.0265 2.5177C22.4038 3.5213 21.62 4.40553 20.7147 5.11103Z" fill="white"/>
</svg>
