<svg width="30" height="30" viewBox="0 0 30 30" fill="none" xmlns="http://www.w3.org/2000/svg">
<path d="M15.0005 4.09082C12.0378 4.09082 11.666 4.10378 10.5024 4.15673C9.34109 4.20991 8.54838 4.39377 7.85477 4.66355C7.13729 4.94218 6.52867 5.31491 5.92233 5.9215C5.31553 6.52787 4.94281 7.1365 4.66327 7.85377C4.39283 8.54764 4.20874 9.34059 4.15647 10.5015C4.10443 11.6651 4.09079 12.0372 4.09079 14.9999C4.09079 17.9626 4.10397 18.3333 4.1567 19.497C4.2101 20.6583 4.39396 21.451 4.6635 22.1447C4.94235 22.8622 5.31507 23.4708 5.92164 24.0772C6.52776 24.684 7.13638 25.0576 7.8534 25.3363C8.54747 25.606 9.3404 25.7899 10.5015 25.8431C11.6651 25.896 12.0367 25.909 14.9991 25.909C17.962 25.909 18.3326 25.896 19.4962 25.8431C20.6576 25.7899 21.4512 25.606 22.1452 25.3363C22.8625 25.0576 23.4702 24.684 24.0763 24.0772C24.6831 23.4708 25.0558 22.8622 25.3354 22.1449C25.6035 21.451 25.7876 20.6581 25.8422 19.4972C25.8944 18.3335 25.9081 17.9626 25.9081 14.9999C25.9081 12.0372 25.8944 11.6654 25.8422 10.5017C25.7876 9.34037 25.6035 8.54764 25.3354 7.854C25.0558 7.1365 24.6831 6.52787 24.0763 5.9215C23.4695 5.31468 22.8627 4.94196 22.1446 4.66355C21.4491 4.39377 20.656 4.20991 19.4946 4.15673C18.331 4.10378 17.9606 4.09082 14.997 4.09082H15.0005ZM14.0219 6.05673C14.3123 6.05627 14.6364 6.05673 15.0005 6.05673C17.9131 6.05673 18.2583 6.06718 19.4085 6.11946C20.4721 6.16809 21.0494 6.34582 21.4339 6.49514C21.943 6.69287 22.3059 6.92923 22.6875 7.31105C23.0693 7.69287 23.3057 8.0565 23.5038 8.56559C23.6532 8.94968 23.8311 9.52696 23.8795 10.5906C23.9318 11.7406 23.9431 12.086 23.9431 14.9974C23.9431 17.9088 23.9318 18.2542 23.8795 19.4042C23.8309 20.4679 23.6532 21.0451 23.5038 21.4292C23.3061 21.9383 23.0693 22.3008 22.6875 22.6824C22.3057 23.0642 21.9432 23.3006 21.4339 23.4983C21.0498 23.6483 20.4721 23.8256 19.4085 23.8742C18.2585 23.9265 17.9131 23.9379 15.0005 23.9379C12.0876 23.9379 11.7424 23.9265 10.5924 23.8742C9.52881 23.8251 8.95155 23.6474 8.56679 23.4981C8.05771 23.3004 7.69409 23.064 7.31228 22.6822C6.93048 22.3004 6.69412 21.9376 6.49594 21.4283C6.34663 21.0442 6.16868 20.467 6.12027 19.4033C6.068 18.2533 6.05755 17.9079 6.05755 14.9947C6.05755 12.0815 6.068 11.7379 6.12027 10.5879C6.16891 9.52423 6.34663 8.94696 6.49594 8.56241C6.69367 8.05332 6.93048 7.68968 7.31228 7.30787C7.69409 6.92605 8.05771 6.68968 8.56679 6.4915C8.95132 6.3415 9.52881 6.16423 10.5924 6.11537C11.5987 6.06991 11.9887 6.05627 14.0219 6.054V6.05673ZM20.8235 7.86809C20.1008 7.86809 19.5144 8.45377 19.5144 9.17673C19.5144 9.89946 20.1008 10.4858 20.8235 10.4858C21.5462 10.4858 22.1325 9.89946 22.1325 9.17673C22.1325 8.454 21.5462 7.86764 20.8235 7.86764V7.86809ZM15.0005 9.39764C11.9067 9.39764 9.39836 11.906 9.39836 14.9999C9.39836 18.0938 11.9067 20.601 15.0005 20.601C18.0942 20.601 20.6017 18.0938 20.6017 14.9999C20.6017 11.906 18.094 9.39764 15.0002 9.39764H15.0005ZM15.0005 11.3635C17.0086 11.3635 18.6367 12.9915 18.6367 14.9999C18.6367 17.0081 17.0086 18.6363 15.0005 18.6363C12.9921 18.6363 11.3642 17.0081 11.3642 14.9999C11.3642 12.9915 12.9921 11.3635 15.0005 11.3635Z" fill="white"/>
</svg>
