<svg width="20" height="20" viewBox="0 0 20 20" fill="none" xmlns="http://www.w3.org/2000/svg">
<path d="M7.48727 16.5737C9.15601 16.5737 10.5088 15.379 10.5088 13.5521V0H14.1325C13.9292 2.47153 16.3862 4.85897 19.0957 4.80437V8.21184C16.7785 8.21184 14.808 7.23201 14.1222 6.68824V13.5521C14.1222 16.5737 11.7452 20 7.48727 20C3.22935 20 0.904236 16.5737 0.904236 13.5521C0.904236 9.28751 5.41728 6.8142 8.40636 7.41871V10.8894C8.25599 10.8362 7.86821 10.7576 7.53792 10.7576C5.85531 10.6955 4.46573 12.0602 4.46573 13.5521C4.46573 15.2209 5.81852 16.5737 7.48727 16.5737Z" fill="white"/>
</svg>
