<svg width="26" height="26" viewBox="0 0 26 26" fill="none" xmlns="http://www.w3.org/2000/svg">
<path d="M23.3686 13.0126C23.3686 18.7458 18.7265 23.3935 13.0002 23.3935C7.27391 23.3935 2.63184 18.7458 2.63184 13.0126C2.63184 7.27935 7.27391 2.63164 13.0002 2.63164C18.7265 2.63164 23.3686 7.27935 23.3686 13.0126Z" fill="white"/>
<path d="M10.6886 6.91488L17.5198 5.55717C17.8311 5.49531 18.1213 5.73347 18.1213 6.05084V16.5177C18.1213 17.4087 17.4981 18.1784 16.6266 18.3638L16.0231 18.4922C14.9717 18.7159 13.9815 17.9141 13.9815 16.8392C13.9815 16.0821 14.4918 15.42 15.2241 15.2273L16.9346 14.7772C17.1667 14.7161 17.3285 14.5062 17.3285 14.2661V9.40653C17.3285 9.18312 17.1233 9.01612 16.9045 9.06158L11.2119 10.2448C11.0368 10.2812 10.9112 10.4355 10.9112 10.6143V17.8714C10.9112 18.846 10.2293 19.6878 9.27583 19.89L8.86198 19.9778C7.7787 20.2076 6.75885 19.3814 6.75885 18.274C6.75885 17.5683 7.23384 16.9509 7.91601 16.7701L9.70643 16.2953C9.9271 16.2368 10.0808 16.0371 10.0808 15.8088V7.65537C10.0808 7.29514 10.3352 6.9851 10.6886 6.91488Z" fill="#FF765B"/>
<path fill-rule="evenodd" clip-rule="evenodd" d="M24.375 13C24.375 19.2822 19.2822 24.375 13 24.375C6.71776 24.375 1.625 19.2822 1.625 13C1.625 6.71776 6.71776 1.625 13 1.625C19.2822 1.625 24.375 6.71776 24.375 13ZM23.3684 13.0126C23.3684 18.7458 18.7263 23.3935 13 23.3935C7.27371 23.3935 2.63164 18.7458 2.63164 13.0126C2.63164 7.27934 7.27371 2.63164 13 2.63164C18.7263 2.63164 23.3684 7.27934 23.3684 13.0126Z" fill="#FF765B"/>
</svg>
