<svg width="27" height="26" viewBox="0 0 27 26" fill="none" xmlns="http://www.w3.org/2000/svg">
<circle cx="13.667" cy="13" r="11.375" fill="white"/>
<path d="M20.1103 17.0625H13.4591V9.02725C14.0754 8.46451 14.8735 8.125 15.7455 8.125C17.675 8.125 19.2433 9.78757 19.2783 11.8528C19.5385 11.7538 19.8186 11.7 20.1103 11.7C21.4878 11.7 22.6045 12.9004 22.6045 14.3812C22.6045 15.8621 21.4878 17.0625 20.1103 17.0625Z" fill="#FF5502"/>
<path d="M12.8545 9.75H12.042V17.0625H12.8545V9.75Z" fill="#FF5502"/>
<path d="M10.417 10.5625H11.2295V17.0625H10.417V10.5625Z" fill="#FF5502"/>
<path d="M9.60449 12.1875H8.79199V17.0625H9.60449V12.1875Z" fill="#FF5502"/>
<path d="M7.16699 11.375H7.97949V17.0625H7.16699V11.375Z" fill="#FF5502"/>
<path d="M6.35449 13H5.54199V17.0625H6.35449V13Z" fill="#FF5502"/>
</svg>
