<svg width="27" height="26" viewBox="0 0 27 26" fill="none" xmlns="http://www.w3.org/2000/svg">
<circle cx="13.3335" cy="13" r="11.375" fill="white"/>
<path d="M18.5045 17.5687C18.3102 17.877 17.8956 17.9634 17.5717 17.7783C15.0194 16.2982 11.8193 15.9652 8.03619 16.7792C7.67342 16.8533 7.31066 16.6436 7.23292 16.2982C7.15519 15.9528 7.37544 15.6075 7.7382 15.5335C11.8711 14.6331 15.421 15.0154 18.2713 16.6806C18.5952 16.8656 18.6989 17.2603 18.5045 17.5687ZM19.826 14.7564C19.5799 15.1388 19.0616 15.2498 18.66 15.0278C15.7449 13.3133 11.3011 12.8199 7.8548 13.819C7.40135 13.9423 6.93494 13.708 6.80538 13.2886C6.67582 12.8569 6.92198 12.4129 7.37544 12.2895C11.314 11.1547 16.2113 11.6975 19.5669 13.6586C19.9426 13.8807 20.0722 14.374 19.826 14.7564ZM19.9426 11.8208C16.4445 9.84729 10.6792 9.66228 7.33657 10.6244C6.80538 10.7847 6.23532 10.501 6.06689 9.98297C5.89847 9.47726 6.20941 8.93455 6.7406 8.7742C10.5755 7.6641 16.9498 7.88612 20.9661 10.1557C21.4455 10.427 21.601 11.0191 21.3159 11.4754C21.0439 11.9441 20.422 12.1045 19.9426 11.8208Z" fill="#1ED760"/>
</svg>
