<svg width="14" height="26" viewBox="0 0 14 26" fill="none" xmlns="http://www.w3.org/2000/svg">
<path d="M6.9683 16.9315C6.59107 16.9315 6.29625 16.8011 6.08383 16.5402C5.87142 16.2793 5.78636 15.9646 5.82867 15.5962C5.92563 14.736 6.16978 13.9607 6.56113 13.2706C6.95248 12.5804 7.60384 11.8343 8.51521 11.0322C9.42482 10.2143 10.1154 9.43292 10.587 8.68813C11.0585 7.94334 11.2943 7.13537 11.2943 6.26421C11.2943 5.11517 10.9026 4.15943 10.1193 3.39699C9.33589 2.63458 8.26369 2.25337 6.90265 2.25337C5.93806 2.25337 5.14757 2.44148 4.53118 2.8177C3.91479 3.19395 3.40592 3.681 3.00455 4.27885C2.83373 4.53923 2.60594 4.71626 2.32118 4.80994C2.03639 4.90363 1.75914 4.89464 1.48941 4.78299C1.17215 4.64785 0.981792 4.41017 0.918336 4.06995C0.85488 3.72975 0.912102 3.4269 1.09 3.16139C1.71769 2.22994 2.51177 1.48701 3.47223 0.932613C4.43266 0.378213 5.57511 0.101013 6.89955 0.101013C9.04004 0.101013 10.6875 0.704271 11.8419 1.91079C12.9963 3.11728 13.5736 4.54857 13.5736 6.20464C13.5736 7.24066 13.3475 8.19673 12.8953 9.07285C12.4431 9.94898 11.7543 10.8181 10.8289 11.6801C9.87692 12.5581 9.22511 13.2792 8.87343 13.8432C8.52173 14.4072 8.31327 15.0383 8.24805 15.7363C8.20575 16.0766 8.06445 16.3608 7.82417 16.5891C7.58387 16.8174 7.29858 16.9315 6.9683 16.9315ZM6.89546 25.0625C6.40108 25.0625 5.97629 24.8835 5.62108 24.5256C5.26589 24.1677 5.0883 23.7415 5.0883 23.2471C5.0883 22.7528 5.26727 22.328 5.6252 21.9728C5.98311 21.6176 6.40926 21.4399 6.90364 21.4399C7.39802 21.4399 7.82281 21.6189 8.17799 21.9769C8.5332 22.3348 8.71081 22.7609 8.71081 23.2553C8.71081 23.7497 8.53184 24.1745 8.1739 24.5297C7.81597 24.8849 7.38982 25.0625 6.89546 25.0625Z" fill="white"/>
</svg>
